<svg width="94" height="35" viewBox="0 0 94 35" fill="none" xmlns="http://www.w3.org/2000/svg">
<path d="M40.0403 24.1407C38.7203 24.1407 37.587 23.9074 36.6403 23.4407C35.6936 22.9741 34.9203 22.3674 34.3203 21.6207C33.7336 20.8741 33.3003 20.0607 33.0203 19.1807C32.7403 18.3007 32.6003 17.4541 32.6003 16.6407V16.2007C32.6003 15.2941 32.7403 14.4007 33.0203 13.5207C33.3136 12.6407 33.7603 11.8407 34.3603 11.1207C34.9603 10.4007 35.7203 9.82741 36.6403 9.40074C37.5736 8.96074 38.6736 8.74074 39.9403 8.74074C41.2603 8.74074 42.407 8.98074 43.3803 9.46074C44.367 9.92741 45.1536 10.5941 45.7403 11.4607C46.327 12.3141 46.6803 13.3141 46.8003 14.4607H43.9403C43.8336 13.7941 43.5936 13.2341 43.2203 12.7807C42.8603 12.3141 42.4003 11.9674 41.8403 11.7407C41.2803 11.5007 40.647 11.3807 39.9403 11.3807C39.2203 11.3807 38.5803 11.5074 38.0203 11.7607C37.4603 12.0007 36.9936 12.3474 36.6203 12.8007C36.247 13.2541 35.9603 13.7874 35.7603 14.4007C35.5736 15.0141 35.4803 15.6941 35.4803 16.4407C35.4803 17.1607 35.5736 17.8274 35.7603 18.4407C35.9603 19.0541 36.2536 19.5941 36.6403 20.0607C37.027 20.5141 37.5003 20.8674 38.0603 21.1207C38.6336 21.3741 39.2936 21.5007 40.0403 21.5007C41.1336 21.5007 42.0536 21.2341 42.8003 20.7007C43.5603 20.1541 44.0203 19.3941 44.1803 18.4207H47.0403C46.907 19.4607 46.5536 20.4141 45.9803 21.2807C45.407 22.1474 44.6203 22.8407 43.6203 23.3607C42.6203 23.8807 41.427 24.1407 40.0403 24.1407ZM56.1969 23.7607V20.5407H55.7369V16.9607C55.7369 16.3341 55.5835 15.8674 55.2769 15.5607C54.9702 15.2541 54.4969 15.1007 53.8569 15.1007C53.5235 15.1007 53.1235 15.1074 52.6569 15.1207C52.1902 15.1341 51.7169 15.1541 51.2369 15.1807C50.7702 15.1941 50.3502 15.2141 49.9769 15.2407V12.8807C50.2835 12.8541 50.6302 12.8274 51.0169 12.8007C51.4035 12.7741 51.7969 12.7607 52.1969 12.7607C52.6102 12.7474 52.9969 12.7407 53.3569 12.7407C54.4769 12.7407 55.4035 12.8874 56.1369 13.1807C56.8835 13.4741 57.4435 13.9341 57.8169 14.5607C58.2035 15.1874 58.3969 16.0074 58.3969 17.0207V23.7607H56.1969ZM52.6969 24.0407C51.9102 24.0407 51.2169 23.9007 50.6169 23.6207C50.0302 23.3407 49.5702 22.9407 49.2369 22.4207C48.9169 21.9007 48.7569 21.2741 48.7569 20.5407C48.7569 19.7407 48.9502 19.0874 49.3369 18.5807C49.7369 18.0741 50.2902 17.6941 50.9969 17.4407C51.7169 17.1874 52.5569 17.0607 53.5169 17.0607H56.0369V18.7207H53.4769C52.8369 18.7207 52.3435 18.8807 51.9969 19.2007C51.6635 19.5074 51.4969 19.9074 51.4969 20.4007C51.4969 20.8941 51.6635 21.2941 51.9969 21.6007C52.3435 21.9074 52.8369 22.0607 53.4769 22.0607C53.8635 22.0607 54.2169 21.9941 54.5369 21.8607C54.8702 21.7141 55.1435 21.4741 55.3569 21.1407C55.5835 20.7941 55.7102 20.3274 55.7369 19.7407L56.4169 20.5207C56.3502 21.2807 56.1635 21.9207 55.8569 22.4407C55.5635 22.9607 55.1502 23.3607 54.6169 23.6407C54.0969 23.9074 53.4569 24.0407 52.6969 24.0407ZM69.3747 23.7607L65.7347 18.6807H64.1147L68.7347 12.9007H71.6347L67.3747 18.2407L67.4347 16.8407L72.5147 23.7607H69.3747ZM61.7747 23.7607V9.16074H64.5547V23.7607H61.7747ZM74.5184 23.7607V12.9007H76.7184V17.5007H76.6584C76.6584 15.9407 76.9918 14.7607 77.6584 13.9607C78.3251 13.1607 79.3051 12.7607 80.5984 12.7607H80.9984V15.1807H80.2384C79.3051 15.1807 78.5784 15.4341 78.0584 15.9407C77.5518 16.4341 77.2984 17.1541 77.2984 18.1007V23.7607H74.5184ZM89.7797 23.7607V20.5407H89.3197V16.9607C89.3197 16.3341 89.1663 15.8674 88.8597 15.5607C88.553 15.2541 88.0797 15.1007 87.4397 15.1007C87.1063 15.1007 86.7063 15.1074 86.2397 15.1207C85.773 15.1341 85.2997 15.1541 84.8197 15.1807C84.353 15.1941 83.933 15.2141 83.5597 15.2407V12.8807C83.8663 12.8541 84.213 12.8274 84.5997 12.8007C84.9863 12.7741 85.3797 12.7607 85.7797 12.7607C86.193 12.7474 86.5797 12.7407 86.9397 12.7407C88.0597 12.7407 88.9863 12.8874 89.7197 13.1807C90.4663 13.4741 91.0263 13.9341 91.3997 14.5607C91.7863 15.1874 91.9797 16.0074 91.9797 17.0207V23.7607H89.7797ZM86.2797 24.0407C85.493 24.0407 84.7997 23.9007 84.1997 23.6207C83.613 23.3407 83.153 22.9407 82.8197 22.4207C82.4997 21.9007 82.3397 21.2741 82.3397 20.5407C82.3397 19.7407 82.533 19.0874 82.9197 18.5807C83.3197 18.0741 83.873 17.6941 84.5797 17.4407C85.2997 17.1874 86.1397 17.0607 87.0997 17.0607H89.6197V18.7207H87.0597C86.4197 18.7207 85.9263 18.8807 85.5797 19.2007C85.2463 19.5074 85.0797 19.9074 85.0797 20.4007C85.0797 20.8941 85.2463 21.2941 85.5797 21.6007C85.9263 21.9074 86.4197 22.0607 87.0597 22.0607C87.4463 22.0607 87.7997 21.9941 88.1197 21.8607C88.453 21.7141 88.7263 21.4741 88.9397 21.1407C89.1663 20.7941 89.293 20.3274 89.3197 19.7407L89.9997 20.5207C89.933 21.2807 89.7463 21.9207 89.4397 22.4407C89.1463 22.9607 88.733 23.3607 88.1997 23.6407C87.6797 23.9074 87.0397 24.0407 86.2797 24.0407Z" fill="white"/>
<path d="M20.1748 8.51256C24.73 10.4082 26.8861 15.6376 24.9906 20.1929C23.095 24.7482 17.8655 26.9043 13.3102 25.0087C8.75493 23.1131 6.59883 17.8836 8.49442 13.3284C10.39 8.77307 15.6195 6.61697 20.1748 8.51256ZM14.0223 23.2974C17.6325 24.7997 21.777 23.091 23.2793 19.4808C24.7816 15.8706 23.0728 11.7261 19.4627 10.2238C15.8525 8.72152 11.708 10.4303 10.2057 14.0405C8.70338 17.6506 10.4121 21.7951 14.0223 23.2974Z" fill="#F2D849"/>
<path d="M17.1899 6.73808C14.7158 6.6045 12.2788 7.38417 10.3418 8.92904L13.003 12.2659C14.1222 11.3733 15.5303 10.9228 16.9598 11L17.1899 6.73808Z" fill="#F2D849"/>
<path d="M25.283 22.0833C26.57 19.9661 27.0346 17.45 26.5886 15.0128L22.3902 15.781C22.6479 17.1892 22.3794 18.643 21.6358 19.8663L25.283 22.0833Z" fill="#F2D849"/>
<path d="M7.61968 21.3863C8.73577 23.5983 10.6254 25.3235 12.9296 26.2341L14.4983 22.2647C13.1669 21.7385 12.0751 20.7418 11.4303 19.4637L7.61968 21.3863Z" fill="#F2D849"/>
<path d="M26.8208 10.3781C25.5195 8.3232 23.6212 6.71521 21.3803 5.7696L20.8834 6.94721C22.8842 7.7915 24.5791 9.22721 25.741 11.0619L26.8208 10.3781Z" fill="#F2D849"/>
<path d="M6.52355 10.6058C5.26868 12.6894 4.68068 15.1067 4.83835 17.5338L6.11382 17.451C5.97304 15.2839 6.49805 13.1255 7.61846 11.2652L6.52355 10.6058Z" fill="#F2D849"/>
<path d="M16.0971 28.6725C18.5257 28.8042 20.9366 28.1903 23.0066 26.9132L22.3355 25.8254C20.4873 26.9657 18.3347 27.5138 16.1663 27.3962L16.0971 28.6725Z" fill="#F2D849"/>
</svg>
