<svg width="61" height="59" viewBox="0 0 61 59" fill="none" xmlns="http://www.w3.org/2000/svg">
<path d="M53.807 7.98926C54.3662 7.98926 54.866 8.19412 55.3066 8.60384C55.7132 8.99717 55.9166 9.47245 55.9166 10.0297V48.9697C55.9166 49.5269 55.7132 50.0022 55.3066 50.3955C54.866 50.8052 54.3662 51.0101 53.807 51.0101H19.9012C19.342 51.0101 18.8421 50.8052 18.4016 50.3955C17.9949 50.0022 17.7916 49.5269 17.7916 48.9697V41.7913H7.19283C6.63367 41.7913 6.13381 41.5947 5.69325 41.2013C5.28659 40.7752 5.08325 40.2918 5.08325 39.7509V19.2484C5.08325 18.7076 5.28659 18.2241 5.69325 17.798C6.13381 17.4047 6.63367 17.208 7.19283 17.208H17.7916V10.0297C17.7916 9.47245 17.9949 8.99717 18.4016 8.60384C18.8421 8.19412 19.342 7.98926 19.9012 7.98926M17.7916 32.1055L20.7908 37.563H25.3403L20.3333 29.6472L25.2387 21.8543H20.8924L18.122 26.7955L18.0203 26.943L17.9441 27.1151C17.5035 26.2465 17.0291 25.3697 16.5208 24.4847C16.0971 23.6161 15.6481 22.7393 15.1737 21.8543H10.5733L15.377 29.6963L10.1666 37.563H14.6908M35.2782 47.9372V41.7913H20.9687V47.9372M35.2782 38.7184V31.0484H30.4999V38.7184M35.2782 27.9755V20.2809H30.4999V27.9755M35.2782 17.208V11.0622H20.9687V17.208M52.7395 47.9372V41.7913H38.4553V47.9372M52.7395 38.7184V31.0484H38.4553V38.7184M52.7395 27.9755V20.2809H38.4553V27.9755M52.7395 17.208V11.0622H38.4553V17.208H52.7395Z" fill="white"/>
</svg>
