<svg width="42" height="37" viewBox="0 0 42 37" fill="none" xmlns="http://www.w3.org/2000/svg">
<path d="M23.6441 7.31494L36.9924 30.4349C38.2434 32.6016 36.6797 35.3099 34.1779 35.3099H7.48118C4.97933 35.3099 3.41567 32.6016 4.6666 30.4349L18.0149 7.31494C19.2659 5.14827 22.3932 5.14827 23.6441 7.31494Z" fill="#598AD2" stroke="white" stroke-width="1.5"/>
<g clip-path="url(#clip0_1_644)">
<path d="M24.9805 15.1396C23.153 15.1396 21.6697 16.7974 21.6697 18.84C21.6697 20.8826 23.153 22.5403 24.9805 22.5403C26.8081 22.5403 28.2914 20.8826 28.2914 18.84C28.2914 16.7974 26.8081 15.1396 24.9805 15.1396ZM25.3116 19.58H24.6495V16.6198H25.3116V19.58ZM25.3116 20.3201V21.0602H24.6495V20.3201H25.3116ZM17.0346 24.3905C17.0346 23.7762 17.4782 23.2804 18.0278 23.2804C18.5774 23.2804 19.0211 23.7762 19.0211 24.3905C19.0211 25.0047 18.5774 25.5006 18.0278 25.5006C17.4782 25.5006 17.0346 25.0047 17.0346 24.3905ZM25.6427 23.9686C26.1022 23.8986 26.549 23.7488 26.967 23.5246V28.4608C26.967 28.8679 26.6691 29.2009 26.3049 29.2009H25.6427C25.2785 29.2009 24.9805 28.8679 24.9805 28.4608V27.7208H17.0346V28.4608C17.0346 28.8679 16.7366 29.2009 16.3724 29.2009H15.7103C15.3461 29.2009 15.0481 28.8679 15.0481 28.4608V22.5403L16.4254 18.1073C16.5644 17.6707 16.9286 17.3598 17.3657 17.3598H20.5374C20.4116 17.8261 20.3454 18.3293 20.3454 18.84H17.5974L16.9088 21.0602H20.7891C21.0274 21.6152 21.3453 22.1185 21.7359 22.5403H16.3724V26.2406H25.6427V23.9686ZM24.921 24.0204C24.3463 24.0131 23.778 23.8851 23.2457 23.643C23.0934 23.8428 22.9941 24.1018 22.9941 24.3905C22.9941 25.0047 23.4377 25.5006 23.9873 25.5006C24.5369 25.5006 24.9805 25.0047 24.9805 24.3905C24.9805 24.2572 24.9607 24.1388 24.921 24.0204Z" fill="white"/>
</g>
<defs>
<clipPath id="clip0_1_644">
<rect width="15.8919" height="17.7616" fill="white" transform="translate(13.0615 14.3997)"/>
</clipPath>
</defs>
</svg>
