<svg width="41" height="36" viewBox="0 0 41 36" fill="none" xmlns="http://www.w3.org/2000/svg">
<path d="M23.0911 6.375L36.4395 29.495C37.6904 31.6617 36.1267 34.37 33.6249 34.37H6.9282C4.42635 34.37 2.86269 31.6617 4.11362 29.495L17.462 6.375C18.7129 4.20833 21.8402 4.20833 23.0911 6.375Z" fill="#D337EC" stroke="white" stroke-width="1.5"/>
<path d="M24.4274 14.1998C22.5999 14.1998 21.1166 15.8575 21.1166 17.9001C21.1166 19.9427 22.5999 21.6004 24.4274 21.6004C26.255 21.6004 27.7383 19.9427 27.7383 17.9001C27.7383 15.8575 26.255 14.1998 24.4274 14.1998ZM24.7585 18.6402H24.0964V15.6799H24.7585V18.6402ZM24.7585 19.3802V20.1203H24.0964V19.3802H24.7585ZM16.4815 23.4506C16.4815 22.8363 16.9251 22.3405 17.4747 22.3405C18.0243 22.3405 18.468 22.8363 18.468 23.4506C18.468 24.0648 18.0243 24.5607 17.4747 24.5607C16.9251 24.5607 16.4815 24.0648 16.4815 23.4506ZM25.0896 23.0288C25.5491 22.9588 25.9959 22.8089 26.4139 22.5847V27.521C26.4139 27.928 26.116 28.261 25.7518 28.261H25.0896C24.7254 28.261 24.4274 27.928 24.4274 27.521V26.7809H16.4815V27.521C16.4815 27.928 16.1835 28.261 15.8193 28.261H15.1572C14.793 28.261 14.495 27.928 14.495 27.521V21.6004L15.8723 17.1674C16.0113 16.7308 16.3755 16.42 16.8126 16.42H19.9843C19.8585 16.8862 19.7923 17.3895 19.7923 17.9001H17.0443L16.3557 20.1203H20.236C20.4743 20.6754 20.7922 21.1786 21.1828 21.6004H15.8193V25.3008H25.0896V23.0288ZM24.3679 23.0806C23.7932 23.0733 23.2249 22.9452 22.6926 22.7031C22.5403 22.9029 22.441 23.162 22.441 23.4506C22.441 24.0648 22.8846 24.5607 23.4342 24.5607C23.9838 24.5607 24.4274 24.0648 24.4274 23.4506C24.4274 23.3174 24.4076 23.199 24.3679 23.0806Z" fill="white"/>
</svg>
