<svg width="41" height="37" viewBox="0 0 41 37" fill="none" xmlns="http://www.w3.org/2000/svg">
<path d="M23.0911 7.31494L36.4395 30.4349C37.6904 32.6016 36.1267 35.3099 33.6249 35.3099H6.9282C4.42635 35.3099 2.86269 32.6016 4.11362 30.4349L17.462 7.31494C18.7129 5.14827 21.8402 5.14827 23.0911 7.31494Z" fill="#EC6337" stroke="white" stroke-width="1.5"/>
<path d="M24.4276 15.1396C22.6 15.1396 21.1168 16.7974 21.1168 18.84C21.1168 20.8826 22.6 22.5403 24.4276 22.5403C26.2551 22.5403 27.7384 20.8826 27.7384 18.84C27.7384 16.7974 26.2551 15.1396 24.4276 15.1396ZM24.7587 19.58H24.0965V16.6198H24.7587V19.58ZM24.7587 20.3201V21.0602H24.0965V20.3201H24.7587ZM16.4816 24.3905C16.4816 23.7762 16.9253 23.2804 17.4749 23.2804C18.0244 23.2804 18.4681 23.7762 18.4681 24.3905C18.4681 25.0047 18.0244 25.5006 17.4749 25.5006C16.9253 25.5006 16.4816 25.0047 16.4816 24.3905ZM25.0897 23.9686C25.5492 23.8986 25.996 23.7488 26.4141 23.5246V28.4608C26.4141 28.8679 26.1161 29.2009 25.7519 29.2009H25.0897C24.7255 29.2009 24.4276 28.8679 24.4276 28.4608V27.7208H16.4816V28.4608C16.4816 28.8679 16.1836 29.2009 15.8194 29.2009H15.1573C14.7931 29.2009 14.4951 28.8679 14.4951 28.4608V22.5403L15.8724 18.1073C16.0115 17.6707 16.3757 17.3598 16.8127 17.3598H19.9845C19.8586 17.8261 19.7924 18.3293 19.7924 18.84H17.0444L16.3558 21.0602H20.2361C20.4745 21.6152 20.7923 22.1185 21.183 22.5403H15.8194V26.2406H25.0897V23.9686ZM24.368 24.0204C23.7933 24.0131 23.225 23.8851 22.6927 23.643C22.5404 23.8428 22.4411 24.1018 22.4411 24.3905C22.4411 25.0047 22.8847 25.5006 23.4343 25.5006C23.9839 25.5006 24.4276 25.0047 24.4276 24.3905C24.4276 24.2572 24.4077 24.1388 24.368 24.0204Z" fill="white"/>
</svg>
