<svg width="42" height="36" viewBox="0 0 42 36" fill="none" xmlns="http://www.w3.org/2000/svg">
<path d="M23.6442 6.37695L36.9926 29.497C38.2435 31.6636 36.6798 34.372 34.178 34.372H7.4813C4.97945 34.372 3.4158 31.6636 4.66672 29.497L18.0151 6.37695C19.266 4.21028 22.3933 4.21029 23.6442 6.37695Z" fill="#0C5B60" stroke="white" stroke-width="1.5"/>
<g clip-path="url(#clip0_707_1673)">
<path d="M24.9805 14.2017C23.153 14.2017 21.6697 15.8595 21.6697 17.9021C21.6697 19.9446 23.153 21.6024 24.9805 21.6024C26.8081 21.6024 28.2914 19.9446 28.2914 17.9021C28.2914 15.8595 26.8081 14.2017 24.9805 14.2017ZM25.3116 18.6421H24.6495V15.6819H25.3116V18.6421ZM25.3116 19.3822V20.1223H24.6495V19.3822H25.3116ZM17.0346 23.4525C17.0346 22.8383 17.4782 22.3425 18.0278 22.3425C18.5774 22.3425 19.0211 22.8383 19.0211 23.4525C19.0211 24.0668 18.5774 24.5626 18.0278 24.5626C17.4782 24.5626 17.0346 24.0668 17.0346 23.4525ZM25.6427 23.0307C26.1022 22.9607 26.549 22.8109 26.967 22.5867V27.5229C26.967 27.9299 26.6691 28.263 26.3049 28.263H25.6427C25.2785 28.263 24.9805 27.9299 24.9805 27.5229V26.7828H17.0346V27.5229C17.0346 27.9299 16.7366 28.263 16.3724 28.263H15.7103C15.3461 28.263 15.0481 27.9299 15.0481 27.5229V21.6024L16.4254 17.1694C16.5644 16.7328 16.9286 16.4219 17.3657 16.4219H20.5374C20.4116 16.8882 20.3454 17.3914 20.3454 17.9021H17.5974L16.9088 20.1223H20.7891C21.0274 20.6773 21.3453 21.1805 21.7359 21.6024H16.3724V25.3027H25.6427V23.0307ZM24.921 23.0825C24.3463 23.0752 23.778 22.9472 23.2457 22.7051C23.0934 22.9049 22.9941 23.1639 22.9941 23.4525C22.9941 24.0668 23.4377 24.5626 23.9873 24.5626C24.5369 24.5626 24.9805 24.0668 24.9805 23.4525C24.9805 23.3193 24.9607 23.2009 24.921 23.0825Z" fill="white"/>
</g>
<defs>
<clipPath id="clip0_707_1673">
<rect width="15.8919" height="17.7616" fill="white" transform="translate(13.0616 13.4617)"/>
</clipPath>
</defs>
</svg>
