<svg width="24" height="24" viewBox="0 0 24 24" fill="none" xmlns="http://www.w3.org/2000/svg">
<rect x="2" y="2" width="20" height="20" rx="10" fill="#2ECC71"/>
<path d="M11.9886 16.1193C11.3011 16.1193 10.6903 16.0014 10.1562 15.7656C9.625 15.527 9.20739 15.1989 8.90341 14.7812C8.59943 14.3636 8.44602 13.8835 8.44318 13.3409H10.8295C10.8324 13.5085 10.8835 13.6591 10.983 13.7926C11.0852 13.9233 11.2244 14.0256 11.4006 14.0994C11.5767 14.1733 11.7784 14.2102 12.0057 14.2102C12.2244 14.2102 12.4176 14.1719 12.5852 14.0952C12.7528 14.0156 12.8835 13.9062 12.9773 13.767C13.071 13.6278 13.1165 13.4687 13.1136 13.2898C13.1165 13.1136 13.0625 12.9574 12.9517 12.821C12.8438 12.6847 12.6918 12.5781 12.4957 12.5014C12.2997 12.4247 12.0739 12.3864 11.8182 12.3864H10.9318V10.75H11.8182C12.054 10.75 12.2614 10.7116 12.4403 10.6349C12.6222 10.5582 12.7628 10.4517 12.8622 10.3153C12.9645 10.179 13.0142 10.0227 13.0114 9.84659C13.0142 9.67614 12.973 9.52557 12.8878 9.39489C12.8026 9.2642 12.6832 9.16193 12.5298 9.08807C12.3793 9.0142 12.2045 8.97727 12.0057 8.97727C11.7898 8.97727 11.5966 9.01562 11.4261 9.09233C11.2585 9.16903 11.1264 9.27557 11.0298 9.41193C10.9332 9.5483 10.8835 9.70455 10.8807 9.88068H8.61364C8.61648 9.34659 8.76278 8.875 9.05256 8.46591C9.34517 8.05682 9.74574 7.7358 10.2543 7.50284C10.7628 7.26989 11.3466 7.15341 12.0057 7.15341C12.6506 7.15341 13.2202 7.26278 13.7145 7.48153C14.2116 7.70028 14.5994 8.00142 14.8778 8.38494C15.1591 8.76562 15.2983 9.2017 15.2955 9.69318C15.3011 10.1818 15.1335 10.5824 14.7926 10.8949C14.4545 11.2074 14.0256 11.392 13.5057 11.4489V11.517C14.2102 11.5937 14.7401 11.8097 15.0952 12.1648C15.4503 12.517 15.625 12.9602 15.6193 13.4943C15.6222 14.0057 15.4688 14.4588 15.1591 14.8537C14.8523 15.2486 14.4247 15.5582 13.8764 15.7827C13.331 16.0071 12.7017 16.1193 11.9886 16.1193Z" fill="white"/>
</svg>
