<svg width="24" height="24" viewBox="0 0 24 24" fill="none" xmlns="http://www.w3.org/2000/svg">
<rect x="2" y="2" width="20" height="20" rx="10" fill="#0165FB"/>
<path d="M12.142 16.1193C11.4375 16.1193 10.8082 16.0099 10.2543 15.7912C9.70313 15.5724 9.26847 15.2756 8.95028 14.9006C8.63494 14.5256 8.47727 14.1023 8.47727 13.6307C8.47727 13.2699 8.56676 12.9403 8.74574 12.642C8.92756 12.3437 9.17188 12.0966 9.47869 11.9006C9.78551 11.7017 10.1278 11.5739 10.5057 11.517V11.4489C10.0085 11.3636 9.59943 11.1435 9.27841 10.7884C8.96023 10.4304 8.80114 10.0085 8.80114 9.52273C8.80114 9.06534 8.94602 8.65909 9.2358 8.30398C9.52557 7.94602 9.92188 7.66477 10.4247 7.46023C10.9276 7.25568 11.5 7.15341 12.142 7.15341C12.7841 7.15341 13.3565 7.2571 13.8594 7.46449C14.3622 7.66903 14.7585 7.95028 15.0483 8.30824C15.3381 8.66335 15.483 9.06818 15.483 9.52273C15.483 10.0114 15.321 10.4332 14.9972 10.7884C14.6733 11.1435 14.267 11.3636 13.7784 11.4489V11.517C14.1534 11.5739 14.4943 11.7017 14.8011 11.9006C15.108 12.0966 15.3523 12.3437 15.5341 12.642C15.7159 12.9403 15.8068 13.2699 15.8068 13.6307C15.8068 14.1023 15.6477 14.5256 15.3295 14.9006C15.0142 15.2756 14.5795 15.5724 14.0256 15.7912C13.4744 16.0099 12.8466 16.1193 12.142 16.1193ZM12.142 14.483C12.3665 14.483 12.5653 14.4375 12.7386 14.3466C12.9119 14.2557 13.0483 14.1307 13.1477 13.9716C13.25 13.8097 13.3011 13.6278 13.3011 13.4261C13.3011 13.2244 13.25 13.0455 13.1477 12.8892C13.0483 12.733 12.9119 12.6108 12.7386 12.5227C12.5653 12.4318 12.3665 12.3864 12.142 12.3864C11.9205 12.3864 11.7216 12.4318 11.5455 12.5227C11.3722 12.6108 11.2344 12.733 11.1321 12.8892C11.0327 13.0455 10.983 13.2244 10.983 13.4261C10.983 13.6278 11.0327 13.8082 11.1321 13.9673C11.2344 14.1264 11.3722 14.2528 11.5455 14.3466C11.7216 14.4375 11.9205 14.483 12.142 14.483ZM12.142 10.75C12.3409 10.75 12.517 10.7088 12.6705 10.6264C12.8239 10.544 12.9446 10.4304 13.0327 10.2855C13.1207 10.1406 13.1648 9.97727 13.1648 9.79545C13.1648 9.61364 13.1207 9.45312 13.0327 9.31392C12.9446 9.17187 12.8239 9.06108 12.6705 8.98153C12.517 8.89915 12.3409 8.85795 12.142 8.85795C11.946 8.85795 11.7699 8.89915 11.6136 8.98153C11.4602 9.06108 11.3395 9.17187 11.2514 9.31392C11.1634 9.45312 11.1193 9.61364 11.1193 9.79545C11.1193 9.97727 11.1634 10.1406 11.2514 10.2855C11.3395 10.4276 11.4602 10.5412 11.6136 10.6264C11.7699 10.7088 11.946 10.75 12.142 10.75Z" fill="white"/>
</svg>
