<svg width="24" height="24" viewBox="0 0 24 24" fill="none" xmlns="http://www.w3.org/2000/svg">
<rect x="2" y="2" width="20" height="20" rx="10" fill="#3498DB"/>
<path d="M8.57955 16V14.2955L11.8352 11.6023C12.0511 11.4233 12.2358 11.2557 12.3892 11.0994C12.5455 10.9403 12.6648 10.777 12.7472 10.6094C12.8324 10.4418 12.875 10.2557 12.875 10.0511C12.875 9.8267 12.8267 9.63494 12.7301 9.47585C12.6364 9.31676 12.5057 9.1946 12.3381 9.10938C12.1705 9.02131 11.9773 8.97727 11.7585 8.97727C11.5398 8.97727 11.3466 9.02131 11.179 9.10938C11.0142 9.19744 10.8864 9.3267 10.7955 9.49716C10.7045 9.66761 10.6591 9.875 10.6591 10.1193H8.40909C8.40909 9.50568 8.54688 8.97727 8.82244 8.53409C9.09801 8.09091 9.48722 7.75 9.99006 7.51136C10.4929 7.27273 11.0824 7.15341 11.7585 7.15341C12.4574 7.15341 13.0625 7.26562 13.5739 7.49006C14.0881 7.71165 14.4844 8.02415 14.7628 8.42756C15.044 8.83097 15.1847 9.30398 15.1847 9.84659C15.1847 10.1818 15.1151 10.5156 14.9759 10.848C14.8366 11.1776 14.5866 11.5426 14.2259 11.9432C13.8651 12.3438 13.3523 12.821 12.6875 13.375L11.8693 14.0568V14.108H15.2784V16H8.57955Z" fill="white"/>
</svg>
