<svg width="24" height="24" viewBox="0 0 24 24" fill="none" xmlns="http://www.w3.org/2000/svg">
<rect x="2" y="2" width="20" height="20" rx="10" fill="#716963"/>
<path d="M12.2273 16.1193C11.7188 16.1193 11.2358 16.0398 10.7784 15.8807C10.3239 15.7187 9.92045 15.4645 9.56818 15.1179C9.21591 14.7713 8.93892 14.3196 8.73722 13.7628C8.53835 13.206 8.44034 12.5312 8.44318 11.7386C8.44602 11.0312 8.53693 10.3949 8.71591 9.82955C8.89773 9.2642 9.15483 8.78267 9.48722 8.38494C9.82244 7.98722 10.223 7.68324 10.6889 7.47301C11.1548 7.25994 11.6733 7.15341 12.2443 7.15341C12.8864 7.15341 13.4517 7.27699 13.9403 7.52415C14.429 7.77131 14.8182 8.10227 15.108 8.51705C15.4006 8.92898 15.571 9.38352 15.6193 9.88068H13.2841C13.2301 9.63352 13.1051 9.45312 12.9091 9.33949C12.7159 9.22301 12.4943 9.16477 12.2443 9.16477C11.7472 9.16477 11.3821 9.38068 11.1491 9.8125C10.919 10.2443 10.8011 10.8125 10.7955 11.517H10.8466C10.9574 11.25 11.125 11.0213 11.3494 10.831C11.5739 10.6406 11.8352 10.4943 12.1335 10.392C12.4318 10.2898 12.7472 10.2386 13.0795 10.2386C13.608 10.2386 14.0696 10.358 14.4645 10.5966C14.8622 10.8352 15.1719 11.1619 15.3935 11.5767C15.6151 11.9915 15.7244 12.4659 15.7216 13C15.7244 13.625 15.5767 14.1719 15.2784 14.6406C14.983 15.1094 14.5724 15.473 14.0469 15.7315C13.5213 15.9901 12.9148 16.1193 12.2273 16.1193ZM12.2102 14.3295C12.446 14.3295 12.6548 14.2756 12.8366 14.1676C13.0213 14.0597 13.1648 13.9119 13.267 13.7244C13.3722 13.5369 13.4233 13.3239 13.4205 13.0852C13.4233 12.8437 13.3722 12.6307 13.267 12.446C13.1648 12.2585 13.0213 12.1108 12.8366 12.0028C12.6548 11.8949 12.446 11.8409 12.2102 11.8409C12.0369 11.8409 11.8764 11.8722 11.7287 11.9347C11.5838 11.9943 11.4574 12.081 11.3494 12.1946C11.2415 12.3054 11.1562 12.4375 11.0938 12.5909C11.0341 12.7415 11.0028 12.9062 11 13.0852C11.0028 13.3239 11.0568 13.5369 11.1619 13.7244C11.267 13.9119 11.4105 14.0597 11.5923 14.1676C11.7741 14.2756 11.9801 14.3295 12.2102 14.3295Z" fill="white"/>
</svg>
