<svg width="24" height="24" viewBox="0 0 24 24" fill="none" xmlns="http://www.w3.org/2000/svg">
<rect x="2" y="2" width="20" height="20" rx="10" fill="#1EB32D"/>
<path d="M12.0739 16.1193C11.4034 16.1193 10.8082 16.0014 10.2884 15.7656C9.77131 15.527 9.36364 15.1989 9.06534 14.7812C8.76989 14.3636 8.61932 13.8835 8.61364 13.3409H10.9148C10.9233 13.642 11.0398 13.8821 11.2642 14.0611C11.4915 14.2401 11.7614 14.3295 12.0739 14.3295C12.3153 14.3295 12.5284 14.2784 12.7131 14.1761C12.8977 14.071 13.0426 13.9233 13.1477 13.733C13.2528 13.5426 13.304 13.321 13.3011 13.0682C13.304 12.8125 13.2528 12.5909 13.1477 12.4034C13.0426 12.2131 12.8977 12.0668 12.7131 11.9645C12.5284 11.8594 12.3153 11.8068 12.0739 11.8068C11.8239 11.8068 11.5923 11.8679 11.3793 11.9901C11.169 12.1094 11.0142 12.2756 10.9148 12.4886L8.83523 12.0795L9.17614 7.27273H15.0398V9.16477H11.1193L10.9489 11.0909H11C11.1364 10.8267 11.3722 10.608 11.7074 10.4347C12.0426 10.2585 12.4318 10.1705 12.875 10.1705C13.3949 10.1705 13.858 10.2912 14.2642 10.5327C14.6733 10.7741 14.9957 11.108 15.2315 11.5341C15.4702 11.9574 15.5881 12.446 15.5852 13C15.5881 13.608 15.4432 14.1477 15.1506 14.6193C14.8608 15.0881 14.4531 15.456 13.9276 15.723C13.402 15.9872 12.7841 16.1193 12.0739 16.1193Z" fill="white"/>
</svg>
