<svg width="24" height="24" viewBox="0 0 24 24" fill="none" xmlns="http://www.w3.org/2000/svg">
<rect x="2" y="2" width="20" height="20" rx="10" fill="#A59B94"/>
<path d="M11.9886 7.15341C12.4972 7.15341 12.9787 7.23437 13.4332 7.39631C13.8878 7.5554 14.2898 7.80682 14.6392 8.15057C14.9915 8.49432 15.267 8.94318 15.4659 9.49716C15.6676 10.0483 15.7699 10.7159 15.7727 11.5C15.7756 12.2159 15.6861 12.8594 15.5043 13.4304C15.3253 13.9986 15.0682 14.483 14.733 14.8835C14.4006 15.2841 14 15.5909 13.5312 15.804C13.0653 16.0142 12.5455 16.1193 11.9716 16.1193C11.3267 16.1193 10.7599 15.9957 10.2713 15.7486C9.78267 15.5014 9.39347 15.169 9.10369 14.7514C8.81392 14.3338 8.64489 13.8693 8.59659 13.358H10.9318C10.9886 13.6222 11.1136 13.8139 11.3068 13.9332C11.5 14.0497 11.7216 14.108 11.9716 14.108C12.4716 14.108 12.8366 13.892 13.0668 13.4602C13.2997 13.0256 13.4176 12.446 13.4205 11.7216H13.3693C13.2585 11.9886 13.0909 12.2173 12.8665 12.4077C12.642 12.598 12.3807 12.7443 12.0824 12.8466C11.7841 12.9489 11.4688 13 11.1364 13C10.6108 13 10.1506 12.8821 9.75568 12.6463C9.3608 12.4077 9.05256 12.0824 8.83097 11.6705C8.60938 11.2557 8.49716 10.7841 8.49432 10.2557C8.49148 9.63636 8.63778 9.09375 8.93324 8.62784C9.22869 8.16193 9.6392 7.79972 10.1648 7.54119C10.6903 7.28267 11.2983 7.15341 11.9886 7.15341ZM12.0057 8.94318C11.7699 8.94318 11.5597 8.99716 11.375 9.10511C11.1932 9.21307 11.0497 9.35937 10.9446 9.54403C10.8423 9.72869 10.7926 9.9375 10.7955 10.1705C10.7983 10.4034 10.8509 10.6122 10.9531 10.7969C11.0582 10.9815 11.2003 11.1278 11.3793 11.2358C11.5611 11.3437 11.7699 11.3977 12.0057 11.3977C12.179 11.3977 12.3395 11.3679 12.4872 11.3082C12.6349 11.2457 12.7628 11.1591 12.8707 11.0483C12.9815 10.9347 13.0668 10.804 13.1264 10.6562C13.1889 10.5057 13.2188 10.3437 13.2159 10.1705C13.2131 9.9375 13.1591 9.72869 13.054 9.54403C12.9489 9.35937 12.8054 9.21307 12.6236 9.10511C12.4418 8.99716 12.2358 8.94318 12.0057 8.94318Z" fill="white"/>
</svg>
