<svg width="24" height="24" viewBox="0 0 24 24" fill="none" xmlns="http://www.w3.org/2000/svg">
<rect x="2" y="2" width="20" height="20" rx="10" fill="#44ADC5"/>
<path d="M9.93999 7.27273V16H7.57067V9.45455H7.51953L5.61044 10.5966V8.58523L7.75817 7.27273H9.93999ZM15.533 16.2386C14.7404 16.2358 14.0558 16.0526 13.479 15.6889C12.9023 15.3253 12.4577 14.8011 12.1452 14.1165C11.8327 13.4318 11.6779 12.6108 11.6808 11.6534C11.6836 10.6932 11.8398 9.87784 12.1495 9.20739C12.462 8.53693 12.9052 8.02699 13.479 7.67756C14.0558 7.32812 14.7404 7.15341 15.533 7.15341C16.3256 7.15341 17.0103 7.32955 17.587 7.68182C18.1637 8.03125 18.6083 8.54119 18.9208 9.21165C19.2333 9.8821 19.3881 10.696 19.3853 11.6534C19.3853 12.6165 19.229 13.4403 18.9165 14.125C18.604 14.8097 18.1594 15.3338 17.5827 15.6974C17.0089 16.0582 16.3256 16.2386 15.533 16.2386ZM15.533 14.3125C15.9421 14.3125 16.2773 14.0994 16.5387 13.6733C16.8029 13.2443 16.9336 12.571 16.9308 11.6534C16.9308 11.054 16.8711 10.5639 16.7518 10.1832C16.6325 9.80256 16.4677 9.52131 16.2575 9.33949C16.0472 9.15483 15.8058 9.0625 15.533 9.0625C15.1239 9.0625 14.7901 9.26989 14.5316 9.68466C14.2731 10.0994 14.141 10.7557 14.1353 11.6534C14.1325 12.2642 14.1907 12.767 14.31 13.1619C14.4293 13.554 14.5941 13.8438 14.8043 14.0312C15.0174 14.2188 15.2603 14.3125 15.533 14.3125Z" fill="white"/>
</svg>
